<svg xmlns="http://www.w3.org/2000/svg" xmlns:xlink="http://www.w3.org/1999/xlink" width="850" height="352.23"><rect width="850" height="352.23" rx="5" ry="5" class="a"/><svg y="0%" x="0%"><circle cx="20" cy="20" r="6" fill="#ff5f58"/><circle cx="40" cy="20" r="6" fill="#ffbd2e"/><circle cx="60" cy="20" r="6" fill="#18c132"/></svg><svg height="282.23" viewBox="0 0 80 28.223" width="800" x="20" xmlns="http://www.w3.org/2000/svg" xmlns:xlink="http://www.w3.org/1999/xlink" y="55"><style>.a{fill:#090909}.g{font-weight:700}.g,.h,.i,.j,.k,.l{fill:#d70005;white-space:pre}.i,.j,.k,.l{fill:#535353}.j,.k,.l{fill:#1cd915}.k,.l{fill:#d9bd26}.l{fill:#cdcdcd}</style><g font-family="Monaco,Consolas,Menlo,'Bitstream Vera Sans Mono','Powerline Symbols',monospace" font-size="1.67"><defs><symbol id="a"><path fill="transparent" d="M0 0h80v14H0z"/></symbol></defs><path class="a" d="M0 0h80v28.223H0z"/><svg width="80"><svg><use xlink:href="#a"/><text y="1.67" class="g">ENUM</text><text x="5.01" y="1.67" class="h">must</text><text x="10.02" y="1.67" class="h">be</text><text x="13.026" y="1.67" class="h">equal</text><text x="19.038" y="1.67" class="h">to</text><text x="22.044" y="1.67" class="h">one</text><text x="26.052" y="1.67" class="h">of</text><text x="29.058" y="1.67" class="h">the</text><text x="33.066" y="1.67" class="h">allowed</text><text x="41.082" y="1.67" class="h">values</text><text y="3.841" class="h">(paragraph,</text><text x="12.024" y="3.841" class="h">codeBlock,</text><text x="23.046" y="3.841" class="h">blockquote)</text><text x="2.004" y="8.183" class="i">4</text><text x="4.008" y="8.183" class="i">|</text><text x="8.016" y="8.183" class="j">&quot;content&quot;</text><text x="17.034" y="8.183" class="k">:</text><text x="19.038" y="8.183" class="l">[</text><text x="2.004" y="10.354" class="i">5</text><text x="4.008" y="10.354" class="i">|</text><text x="10.02" y="10.354" class="l">{</text><text y="12.525" class="g">&gt;</text><text x="2.004" y="12.525" class="i">6</text><text x="4.008" y="12.525" class="i">|</text><text x="12.024" y="12.525" class="j">&quot;type&quot;</text><text x="18.036" y="12.525" class="k">:</text><text x="20.04" y="12.525" class="j">&quot;paragarph&quot;</text><text x="4.008" y="14.696" class="i">|</text><text x="20.04" y="14.696" class="g">^^^^^^^^^^^</text><text x="32.064" y="14.696" class="g">👈🏽</text><text x="38.076" y="14.696" class="g">Did</text><text x="42.084" y="14.696" class="g">you</text><text x="46.092" y="14.696" class="g">mean</text><text x="51.102" y="14.696" style="white-space:pre" fill="#e09aff" font-weight="700">paragraph</text><text x="61.122" y="14.696" class="g">here?</text><text x="2.004" y="16.867" class="i">7</text><text x="4.008" y="16.867" class="i">|</text><text x="10.02" y="16.867" class="l">}</text><text x="2.004" y="19.038" class="i">8</text><text x="4.008" y="19.038" class="i">|</text><text x="8.016" y="19.038" class="l">]</text><text x="2.004" y="21.209" class="i">9</text><text x="4.008" y="21.209" class="i">|</text><text x="6.012" y="21.209" class="l">}</text></svg></svg></g></svg></svg>