<svg xmlns="http://www.w3.org/2000/svg" xmlns:xlink="http://www.w3.org/1999/xlink" width="850" height="352.23"><rect width="850" height="352.23" rx="5" ry="5" class="a"/><svg y="0%" x="0%"><circle cx="20" cy="20" r="6" fill="#ff5f58"/><circle cx="40" cy="20" r="6" fill="#ffbd2e"/><circle cx="60" cy="20" r="6" fill="#18c132"/></svg><svg height="282.23" viewBox="0 0 80 28.223" width="800" x="20" xmlns="http://www.w3.org/2000/svg" xmlns:xlink="http://www.w3.org/1999/xlink" y="55"><style>.a{fill:#090909}.g{font-weight:700}.g,.h{fill:#d70005}.i{fill:#535353}.j{fill:#1cd915}.k{fill:#d9bd26}.l{fill:#cdcdcd}</style><g font-size="1.67" font-family="Monaco,Consolas,Menlo,'Bitstream Vera Sans Mono','Powerline Symbols',monospace"><defs><symbol id="a"><path fill="transparent" d="M0 0h80v14H0z"/></symbol></defs><path class="a" d="M0 0h80v28.223H0z"/><svg width="80"><svg><use xlink:href="#a"/><text y="1.67" class="g">ENUM</text><text x="5.01" y="1.67" class="h">should</text><text x="12.024" y="1.67" class="h">be</text><text x="15.03" y="1.67" class="h">equal</text><text x="21.042" y="1.67" class="h">to</text><text x="24.048" y="1.67" class="h">one</text><text x="28.056" y="1.67" class="h">of</text><text x="31.062" y="1.67" class="h">the</text><text x="35.07" y="1.67" class="h">allowed</text><text x="43.086" y="1.67" class="h">values</text><text y="3.841" class="h">(paragraph,</text><text x="12.024" y="3.841" class="h">bulletList,</text><text x="24.048" y="3.841" class="h">mediaSingle,</text><text x="37.074" y="3.841" class="h">codeBlock,</text><text x="48.096" y="3.841" class="h">orderedList,</text><text x="61.122" y="3.841" class="h">heading,</text><text x="70.14" y="3.841" class="h">panel,</text><text x="77.154" y="3.841" class="h">blo</text><text y="6.012" class="h">ckquote,</text><text x="9.018" y="6.012" class="h">mediaGroup,</text><text x="21.042" y="6.012" class="h">decisionList,</text><text x="35.07" y="6.012" class="h">taskList,</text><text x="45.09" y="6.012" class="h">table,</text><text x="52.104" y="6.012" class="h">bodiedExtension,</text><text x="69.138" y="6.012" class="h">layoutSecti</text><text y="8.183" class="h">on)</text><text x="2.004" y="12.525" class="i">4</text><text x="4.008" y="12.525" class="i">|</text><text x="8.016" y="12.525" class="j">&quot;content&quot;</text><text x="17.034" y="12.525" class="k">:</text><text x="19.038" y="12.525" class="l">[</text><text x="2.004" y="14.696" class="i">5</text><text x="4.008" y="14.696" class="i">|</text><text x="10.02" y="14.696" class="l">{</text><text y="16.867" class="g">&gt;</text><text x="2.004" y="16.867" class="i">6</text><text x="4.008" y="16.867" class="i">|</text><text x="12.024" y="16.867" class="j">&quot;type&quot;</text><text x="18.036" y="16.867" class="k">:</text><text x="20.04" y="16.867" class="j">&quot;paragarph&quot;</text><text x="31.062" y="16.867" class="k">,</text><text x="4.008" y="19.038" class="i">|</text><text x="20.04" y="19.038" class="g">^^^^^^^^^^^</text><text x="32.064" y="19.038" class="g">👈🏽</text><text x="38.076" y="19.038" class="g">Did</text><text x="42.084" y="19.038" class="g">you</text><text x="46.092" y="19.038" class="g">mean</text><text x="51.102" y="19.038" fill="#e09aff" font-weight="700">paragraph</text><text x="61.122" y="19.038" class="g">here?</text><text x="2.004" y="21.209" class="i">7</text><text x="4.008" y="21.209" class="i">|</text><text x="12.024" y="21.209" class="j">&quot;content&quot;</text><text x="21.042" y="21.209" class="k">:</text><text x="23.046" y="21.209" class="l">[</text><text x="2.004" y="23.38" class="i">8</text><text x="4.008" y="23.38" class="i">|</text><text x="14.028" y="23.38" class="l">{</text><text x="2.004" y="25.551" class="i">9</text><text x="4.008" y="25.551" class="i">|</text><text x="16.032" y="25.551" class="j">&quot;type&quot;</text><text x="22.044" y="25.551" class="k">:</text><text x="24.048" y="25.551" class="j">&quot;text&quot;</text><text x="30.06" y="25.551" class="k">,</text></svg></svg></g></svg></svg>