<svg xmlns="http://www.w3.org/2000/svg" xmlns:xlink="http://www.w3.org/1999/xlink" width="850" height="352.23"><rect width="850" height="352.23" rx="5" ry="5" class="a"/><svg y="0%" x="0%"><circle cx="20" cy="20" r="6" fill="#ff5f58"/><circle cx="40" cy="20" r="6" fill="#ffbd2e"/><circle cx="60" cy="20" r="6" fill="#18c132"/></svg><svg height="282.23" viewBox="0 0 80 28.223" width="800" x="20" xmlns="http://www.w3.org/2000/svg" xmlns:xlink="http://www.w3.org/1999/xlink" y="55"><style>.a{fill:#090909}.g{fill:#d70005}.h{fill:#535353}.i{fill:#1cd915}.j{fill:#d9bd26}.k{fill:#cdcdcd}.l{fill:#d70005;font-weight:700}</style><g font-size="1.67" font-family="Monaco,Consolas,Menlo,'Bitstream Vera Sans Mono','Powerline Symbols',monospace"><defs><symbol id="a"><path fill="transparent" d="M0 0h80v14H0z"/></symbol></defs><path class="a" d="M0 0h80v28.223H0z"/><svg width="80"><svg><use xlink:href="#a"/><text y="1.67" class="g">(paragraph,</text><text x="12.024" y="1.67" class="g">bulletList,</text><text x="24.048" y="1.67" class="g">mediaSingle,</text><text x="37.074" y="1.67" class="g">codeBlock,</text><text x="48.096" y="1.67" class="g">orderedList,</text><text x="61.122" y="1.67" class="g">heading,</text><text x="70.14" y="1.67" class="g">panel,</text><text x="77.154" y="1.67" class="g">blo</text><text y="3.841" class="g">ckquote,</text><text x="9.018" y="3.841" class="g">mediaGroup,</text><text x="21.042" y="3.841" class="g">decisionList,</text><text x="35.07" y="3.841" class="g">taskList,</text><text x="45.09" y="3.841" class="g">table,</text><text x="52.104" y="3.841" class="g">bodiedExtension,</text><text x="69.138" y="3.841" class="g">layoutSecti</text><text y="6.012" class="g">on)</text><text x="2.004" y="10.354" class="h">4</text><text x="4.008" y="10.354" class="h">|</text><text x="8.016" y="10.354" class="i">&quot;content&quot;</text><text x="17.034" y="10.354" class="j">:</text><text x="19.038" y="10.354" class="k">[</text><text x="2.004" y="12.525" class="h">5</text><text x="4.008" y="12.525" class="h">|</text><text x="10.02" y="12.525" class="k">{</text><text y="14.696" class="l">&gt;</text><text x="2.004" y="14.696" class="h">6</text><text x="4.008" y="14.696" class="h">|</text><text x="12.024" y="14.696" class="i">&quot;type&quot;</text><text x="18.036" y="14.696" class="j">:</text><text x="20.04" y="14.696" class="i">&quot;paragarph&quot;</text><text x="31.062" y="14.696" class="j">,</text><text x="4.008" y="16.867" class="h">|</text><text x="20.04" y="16.867" class="l">^^^^^^^^^^^</text><text x="32.064" y="16.867" class="l">👈🏽</text><text x="38.076" y="16.867" class="l">Did</text><text x="42.084" y="16.867" class="l">you</text><text x="46.092" y="16.867" class="l">mean</text><text x="51.102" y="16.867" fill="#e09aff" font-weight="700">paragraph</text><text x="61.122" y="16.867" class="l">here?</text><text x="2.004" y="19.038" class="h">7</text><text x="4.008" y="19.038" class="h">|</text><text x="12.024" y="19.038" class="i">&quot;content&quot;</text><text x="21.042" y="19.038" class="j">:</text><text x="23.046" y="19.038" class="k">[</text><text x="2.004" y="21.209" class="h">8</text><text x="4.008" y="21.209" class="h">|</text><text x="14.028" y="21.209" class="k">{</text><text x="2.004" y="23.38" class="h">9</text><text x="4.008" y="23.38" class="h">|</text><text x="16.032" y="23.38" class="i">&quot;type&quot;</text><text x="22.044" y="23.38" class="j">:</text><text x="24.048" y="23.38" class="i">&quot;text&quot;</text><text x="30.06" y="23.38" class="j">,</text><text x="4.008" y="27.722" class="j">@</text><text x="6.012" y="27.722" class="h">/content/0/type</text></svg></svg></g></svg></svg>